<svg xmlns="http://www.w3.org/2000/svg" xml:space="preserve" viewBox="0 0 511.999 511.999"><path d="M398.133 381.964c0-7.532 6.104-13.636 13.631-13.636 7.532 0 13.636 6.104 13.636 13.636v13.631c0 59.889-48.546 108.437-108.438 108.437v-72.048h44.78c20.097 0 36.39-16.291 36.39-36.39v-13.63z" style="fill:#9c7f4d"/><path d="M337.376 504.033c19.894 0 36.02-16.128 36.02-36.025s-16.128-36.023-36.02-36.023H123.092c-19.896 0-36.025 16.126-36.025 36.023 0 19.897 16.13 36.025 36.025 36.025h214.284zM308.275 55.59c78.458 0 142.061 63.603 142.061 142.066 0 94.37-76.505 170.875-170.875 170.875h-46.922c-94.373 0-170.876-76.505-170.876-170.875 0-78.463 63.603-142.066 142.066-142.066h104.546z" style="fill:#9c7f4d"/><path d="M277.844 209.726c0-40.222-32.609-72.828-72.83-72.828-40.222 0-72.83 32.605-72.83 72.828 0 40.226 32.607 72.832 72.83 72.832 40.221-.001 72.83-32.606 72.83-72.832z" style="fill:#bf9b5f"/><circle cx="205.014" cy="209.73" r="34.227" style="fill:#333e48"/><path d="M234.155 209.726c0-40.222 32.607-72.828 72.832-72.828 40.22 0 72.828 32.605 72.828 72.828 0 40.226-32.607 72.832-72.828 72.832-40.225-.001-72.832-32.606-72.832-72.832z" style="fill:#bf9b5f"/><circle cx="306.984" cy="209.73" r="34.227" style="fill:#333e48"/><path d="M414.315 504.033c19.897 0 36.023-16.128 36.023-36.025s-16.126-36.023-36.023-36.023h-91.47c-17.018 0-30.822-13.799-30.822-30.822V85.955h-72.047v315.209c0 56.812 46.056 102.869 102.869 102.869h91.47z" style="fill:#e1cb81"/><path d="M219.971 142.986h72.047v5.94h-72.047zm0 25.006h72.047v5.94h-72.047zm0 24.996h72.047v5.943h-72.047zm0 25.007h72.047v5.94h-72.047zm0 25.006h72.047v5.94h-72.047zm0 24.996h72.047v5.943h-72.047zm0 25.007h72.047v5.94h-72.047zm0 25.006h72.047v5.938h-72.047zm0 25.007h72.047v5.94h-72.047zm0 24.996h72.047v5.943h-72.047z" style="fill:#9c7f4d"/><path d="M414.315 431.984h-91.47c-17.018 0-30.822-13.799-30.822-30.822v51.437c0 28.404 23.031 51.432 51.434 51.432h70.856c19.897 0 36.023-16.128 36.023-36.025.001-19.896-16.125-36.022-36.021-36.022zM207.61 45.392a7.578 7.578 0 0 0-7.577 7.58v27.701c0 16.211 13.135 29.348 29.348 29.348h53.237c16.213 0 29.35-13.137 29.35-29.348V52.972a7.579 7.579 0 0 0-7.582-7.58H207.61z" style="fill:#bf9b5f"/><path d="M229.381 93.866c-8.916 0-16.171-7.258-16.171-16.174V55.59h85.583v22.103c0 8.916-7.255 16.174-16.176 16.174h-53.236v-.001z" style="fill:#65513c"/><path d="M310.893 55.561c4.747 0 8.6-3.849 8.6-8.598v-5.701c0-18.389-14.907-33.295-33.295-33.295h-60.396c-18.392 0-33.297 14.905-33.297 33.295v5.701a8.597 8.597 0 0 0 8.598 8.598h109.79z" style="fill:#e1cb81"/><path d="M234.543 7.967v19.424c0 4.548 3.689 8.235 8.241 8.235h26.435a8.237 8.237 0 0 0 8.239-8.235V7.967h-42.915z" style="fill:#bf9b5f"/><path d="M429.171 426.605a116.399 116.399 0 0 0 4.196-31.01v-13.631c0-11.912-9.691-21.603-21.603-21.603-11.909 0-21.599 9.691-21.599 21.603v13.631c0 15.672-12.751 28.423-28.423 28.423h-38.898c-12.601 0-22.854-10.252-22.854-22.854v-25.84c42.13-4.816 81.027-24.388 110.199-55.623 31.028-33.22 48.115-76.563 48.115-122.043 0-39.396-15.154-76.615-42.667-104.8-23.893-24.474-54.809-39.796-88.288-44.028.068-.613.112-1.233.112-1.864v-5.701C327.461 18.511 308.95 0 286.199 0h-60.396c-22.753 0-41.264 18.511-41.264 41.262v5.701c0 .631.044 1.25.112 1.863-33.481 4.234-64.396 19.556-88.287 44.03-27.515 28.184-42.668 65.403-42.668 104.799 0 45.456 17.071 88.781 48.069 121.995 29.173 31.259 68.09 50.849 110.242 55.67v25.843c0 7.832.821 15.476 2.374 22.854h-91.29c-24.258 0-43.992 19.733-43.992 43.99 0 24.258 19.734 43.992 43.992 43.992h291.222c24.257 0 43.99-19.734 43.99-43.992.001-19.044-12.165-35.295-29.132-41.402zm-23.071-31.01v-13.631a5.673 5.673 0 0 1 5.664-5.668 5.675 5.675 0 0 1 5.668 5.668v13.631a100.44 100.44 0 0 1-4.098 28.423h-17.569c6.446-7.705 10.335-17.617 10.335-28.423zM319.936 80.672V64.067c31.984 2.745 61.665 16.737 84.299 39.92 24.591 25.191 38.134 58.456 38.134 93.669 0 41.428-15.564 80.908-43.825 111.168-26.156 28.004-60.887 45.717-98.554 50.452V113.683c11.849-6.26 19.946-18.705 19.946-33.011zM242.51 15.935h26.98v11.457a.27.27 0 0 1-.272.268h-26.435a.27.27 0 0 1-.274-.268V15.935h.001zm-42.035 25.327c0-13.966 11.362-25.327 25.329-25.327h.772v11.457c0 8.934 7.271 16.202 16.209 16.202h26.435c8.936 0 16.206-7.268 16.206-16.202V15.935h.774c13.965 0 25.327 11.361 25.327 25.327v5.701a.633.633 0 0 1-.633.631H201.107a.633.633 0 0 1-.631-.631v-5.701h-.001zm11.533 318.013c-37.689-4.739-72.437-22.47-98.594-50.496C85.18 278.527 69.63 239.062 69.63 197.657c0-35.212 13.543-68.478 38.136-93.668 22.633-23.185 52.313-37.175 84.298-39.923v16.608c0 14.306 8.096 26.751 19.943 33.01v245.592h.001zM208 80.672V63.529h21.709v8.561a7.966 7.966 0 0 0 7.967 7.967 7.966 7.966 0 0 0 7.967-7.967v-8.561h20.715v8.561a7.966 7.966 0 0 0 7.967 7.967 7.966 7.966 0 0 0 7.967-7.967v-8.561h21.709v17.144c0 11.789-9.593 21.381-21.383 21.381h-53.237C217.591 102.053 208 92.462 208 80.672zm-84.908 415.393c-15.47 0-28.057-12.587-28.057-28.057 0-15.47 12.587-28.055 28.057-28.055h95.926c8.816 23.521 25.403 43.274 46.624 56.113h-142.55zm104.851-94.901V117.951c.477.018.955.036 1.438.036h53.237c.482 0 .96-.019 1.438-.036v334.648c0 15.767 6.187 30.108 16.246 40.752-41.482-10.144-72.359-47.625-72.359-92.187zm186.372 94.901h-70.856c-23.969 0-43.467-19.497-43.467-43.465v-20.122a38.576 38.576 0 0 0 22.854 7.474h91.469c15.47 0 28.055 12.586 28.055 28.055 0 15.471-12.586 28.058-28.055 28.058zM213.544 36.716a6.438 6.438 0 1 0 0-12.875 6.436 6.436 0 0 0-6.434 6.436 6.436 6.436 0 0 0 6.434 6.439zm84.911 0a6.438 6.438 0 1 0 0-12.875 6.436 6.436 0 0 0-6.434 6.436 6.436 6.436 0 0 0 6.434 6.439z" style="fill:#1e252b"/></svg>