<svg height="800" width="800" xmlns="http://www.w3.org/2000/svg" viewBox="0 0 511.999 511.999" xml:space="preserve"><path style="fill:#65513c" d="M379.313 344.141c43.995 0 79.663 35.667 79.663 79.662 0 13.791-3.507 26.764-9.676 38.076h8.401c11.485 0 20.794 9.312 20.794 20.794v11.408c0 5.185-4.2 9.387-9.387 9.387h-89.795c-43.998 0-79.665-35.666-79.665-79.665 0-43.995 35.668-79.662 79.665-79.662zM132.686 344.141c-43.998 0-79.664 35.667-79.664 79.662 0 13.791 3.508 26.764 9.677 38.076h-8.402c-11.483 0-20.793 9.312-20.793 20.794v11.408c0 5.185 4.2 9.387 9.387 9.387h89.795c43.998 0 79.665-35.666 79.665-79.665 0-43.995-35.668-79.662-79.665-79.662z"/><path style="fill:#9c7f4d" d="M173.85 503.469h164.302c36.51 0 66.387-29.875 66.387-66.385V299.457c0-82.036-66.504-148.537-148.539-148.537-82.034 0-148.537 66.501-148.537 148.537v137.625c-.001 36.511 29.873 66.387 66.387 66.387z"/><path style="fill:#fff" d="M107.462 339.368v88.739c19.833-5.017 34.513-22.977 34.513-44.37s-14.68-39.353-34.513-44.369z"/><path style="fill:#9c7f4d" d="M344.137 21.89H167.861c-39.174 0-71.226 32.052-71.226 71.226v74.571c0 88.016 71.351 159.364 159.365 159.364 88.013 0 159.364-71.348 159.364-159.364V93.115c0-39.173-32.053-71.225-71.227-71.225z"/><path style="fill:#fff" d="M316.803 160.503H195.196c-18.733 0-33.916 15.185-33.916 33.917v67.833c0 18.733 15.184 33.918 33.916 33.918 18.733 0 33.916-15.186 33.916-33.918v-33.916h53.775v33.916c0 18.733 15.184 33.918 33.916 33.918 18.733 0 33.916-15.186 33.916-33.918V194.42c0-18.733-15.183-33.917-33.916-33.917z"/><path style="fill:#826940" d="M283.234 202.732H228.76c-12.103 0-22.01 9.903-22.01 22.009v12.011c0 27.2 22.049 49.244 49.248 49.244 27.198 0 49.246-22.044 49.246-49.244v-12.011c.002-12.106-9.904-22.009-22.01-22.009z"/><path style="fill:#333e48" d="M271.894 177.723c-8.053 8.354-21.472 8.59-29.815.533l-9.312-8.987c-8.347-8.058-5.681-14.653 5.921-14.653h34.397c11.602 0 14.505 6.835 6.449 15.183l-7.64 7.924z"/><path style="fill:#65513c" d="M410.001 90.503c-21.349.391-39.122-16.768-39.495-38.115l-.427-23.813c-.375-21.352 11.68-26.465 26.779-11.363l44.77 44.767c15.101 15.101 9.982 27.773-11.368 28.154l-20.259.37zM101.998 90.503c21.35.391 39.123-16.768 39.495-38.115l.427-23.813c.375-21.352-11.68-26.465-26.779-11.363l-44.77 44.767c-15.101 15.1-9.982 27.773 11.368 28.154l20.259.37z"/><circle style="fill:#fff" cx="338.951" cy="104.539" r="38.438"/><path style="fill:#826940" d="M215.558 352.374c0-19.241-15.599-34.839-34.839-34.839-19.241 0-34.839 15.598-34.839 34.839v109.505H117c-11.486 0-20.793 9.312-20.793 20.794v11.408c0 5.185 4.2 9.387 9.386 9.387h89.173c11.483 0 20.793-9.312 20.793-20.795V352.374zM296.441 352.374c0-19.241 15.599-34.839 34.839-34.839 19.241 0 34.839 15.598 34.839 34.839v109.505h28.88c11.486 0 20.793 9.312 20.793 20.794v11.408c0 5.185-4.2 9.387-9.386 9.387h-89.173c-11.483 0-20.793-9.312-20.793-20.795l.001-130.299z"/><path style="fill:#1e252b" d="M359.25 262.253V194.42c0-23.406-19.041-42.448-42.447-42.448h-27.655c-2.633-2.983-7.416-5.886-16.061-5.886H238.69c-8.723 0-13.468 2.904-16.046 5.886h-27.448c-23.406 0-42.447 19.042-42.447 42.448v67.833c0 23.407 19.041 42.449 42.447 42.449 13.478 0 25.945-6.402 33.86-16.865A57.421 57.421 0 0 0 256 294.526a57.408 57.408 0 0 0 26.945-6.69 42.36 42.36 0 0 0 33.86 16.866c23.404 0 42.445-19.042 42.445-42.449zm-86.164-99.104c.347 0 .664.009.957.024-.192.22-.407.455-.648.705l-7.642 7.925c-2.371 2.458-5.58 3.814-9.035 3.814-3.283 0-6.376-1.242-8.712-3.498l-9.293-8.969h34.374v-.001zm-17.087 114.314c-22.452 0-40.717-18.264-40.717-40.712V224.74c0-7.432 6.046-13.478 13.479-13.478h54.474c7.433 0 13.48 6.045 13.48 13.478v12.011c-.001 22.448-18.266 40.712-40.716 40.712zm40.687.264c10.547-10.473 17.09-24.973 17.09-40.976V224.74c0-13.382-8.656-24.772-20.66-28.89v-2.925a8.53 8.53 0 0 0-8.531-8.532 8.53 8.53 0 0 0-8.532 8.532v1.275h-40.109v-1.275c0-4.713-3.819-8.532-8.532-8.532s-8.532 3.819-8.532 8.532v2.923c-12.006 4.117-20.662 15.509-20.662 28.891v12.011c0 16.002 6.543 30.502 17.09 40.975-4.741 6.153-12.131 9.914-20.115 9.914-13.997 0-25.384-11.389-25.384-25.386V194.42c0-13.999 11.388-25.385 25.384-25.385h26.546c1.152 2.009 2.794 4.146 5.103 6.375l9.31 8.987c5.533 5.342 12.835 8.285 20.563 8.285 8.132 0 15.705-3.209 21.32-9.033l7.637-7.922c2.272-2.354 3.847-4.594 4.927-6.69h26.204c13.997 0 25.384 11.388 25.384 25.385v67.833c0 13.999-11.388 25.386-25.384 25.386a25.341 25.341 0 0 1-20.117-9.914zm165.608 175.979a88.526 88.526 0 0 0 5.216-29.902 88.08 88.08 0 0 0-54.438-81.491v-42.856c0-18.037-3.033-35.695-9.017-52.545 12.992-24.25 19.841-51.553 19.841-79.225V98.782l6.517-.118c18.844-.337 25.076-8.849 27.113-13.894 2.036-5.044 3.464-15.496-9.865-28.824L402.892 11.18C395.474 3.762 388.173 0 381.193 0c-4.812 0-9.134 1.811-12.503 5.237-2.613 2.66-4.508 6.142-5.691 10.395a79.167 79.167 0 0 0-18.863-2.274H167.861c-6.408 0-12.718.766-18.863 2.271-1.183-4.252-3.078-7.732-5.69-10.391C139.94 1.811 135.618 0 130.805 0c-6.98 0-14.281 3.762-21.696 11.179l-44.77 44.768c-13.327 13.328-11.9 23.78-9.864 28.824 2.037 5.045 8.269 13.557 27.11 13.894l6.518.118v68.904c0 27.673 6.849 54.976 19.843 79.227-5.985 16.85-9.016 34.506-9.016 52.543v42.855c-32.803 13.559-54.44 45.556-54.44 81.491a88.488 88.488 0 0 0 5.216 29.902c-13.997 2.209-24.733 14.358-24.733 28.967v11.408c0 9.879 8.038 17.918 17.918 17.918h426.218c9.881 0 17.918-8.038 17.918-17.918v-11.408c0-14.608-10.737-26.757-24.733-28.966zM380.992 17.08a.845.845 0 0 1 .201-.017c.354 0 3.624.173 9.633 6.183l44.768 44.767c5.541 5.54 6.508 9.378 6.107 10.369-.4.991-3.761 3.082-11.598 3.222l-20.259.37-.559.006c-16.393 0-29.964-13.341-30.249-29.743l-.427-23.81c-.144-8.172 1.886-11.072 2.383-11.347zm-299.1 64.522c-7.835-.14-11.196-2.231-11.595-3.222-.4-.991.566-4.829 6.106-10.369l44.77-44.768c6.006-6.007 9.278-6.181 9.632-6.181.116 0 .182.011.189.011.51.281 2.539 3.181 2.395 11.348l-.427 23.818c-.286 16.399-13.856 29.74-30.249 29.74l-20.821-.377zm5.783 401.071v11.408c0 .289.03.57.043.855H42.89a.855.855 0 0 1-.855-.855v-11.408c0-6.762 5.501-12.263 12.261-12.263h8.402a8.533 8.533 0 0 0 7.49-12.617c-5.649-10.358-8.635-22.111-8.635-33.991a71.046 71.046 0 0 1 37.377-62.633v75.911c0 7 .982 13.865 2.887 20.509-8.47 5.15-14.142 14.468-14.142 25.084zm119.351 0c0 6.762-5.501 12.264-12.262 12.264h-89.173a.855.855 0 0 1-.854-.855v-11.408c0-6.762 5.501-12.263 12.261-12.263h28.88a8.53 8.53 0 0 0 8.532-8.532V352.374c0-14.506 11.802-26.308 26.308-26.308s26.308 11.802 26.308 26.308v130.299zm83.581 12.264h-69.214a29.139 29.139 0 0 0 2.697-12.264V352.374c0-23.914-19.456-43.371-43.371-43.371s-43.371 19.455-43.371 43.371v100.973h-19.004a57.208 57.208 0 0 1-2.35-16.264V299.457c0-17.285 3.119-34.17 9.271-50.186a8.528 8.528 0 0 0-.544-7.27c-12.794-22.548-19.555-48.246-19.555-74.315v-68.71c24.526-1.279 44.424-21.619 44.858-46.434l.352-19.621a62.004 62.004 0 0 1 17.486-2.498h176.277a62.06 62.06 0 0 1 17.487 2.501l.351 19.613c.433 24.819 20.33 45.159 44.856 46.439v68.711c0 26.068-6.762 51.765-19.553 74.312a8.538 8.538 0 0 0-.544 7.27c6.153 16.019 9.272 32.904 9.272 50.189v137.625c0 5.561-.8 11.006-2.356 16.264h-19V352.374c0-23.914-19.456-43.371-43.371-43.371-23.914 0-43.372 19.455-43.372 43.371v130.299a29.154 29.154 0 0 0 2.698 12.264zm116.654-.855a.855.855 0 0 1-.854.855h-89.173c-6.76 0-12.261-5.502-12.261-12.264V352.374c0-14.506 11.802-26.308 26.308-26.308s26.308 11.802 26.308 26.308v109.505a8.53 8.53 0 0 0 8.532 8.532h28.88c6.76 0 12.262 5.501 12.262 12.263l-.002 11.408zm62.703 0a.855.855 0 0 1-.855.855h-44.828c.014-.286.043-.566.043-.855v-11.408c0-10.617-5.672-19.934-14.144-25.083a74.138 74.138 0 0 0 2.89-20.508v-75.91a71.043 71.043 0 0 1 37.375 62.632c0 11.878-2.986 23.632-8.635 33.991a8.53 8.53 0 0 0 7.49 12.617h8.402c6.76 0 12.261 5.501 12.261 12.263v11.407h.001zM338.951 115.84c6.241 0 11.301-5.059 11.301-11.3s-5.06-11.303-11.301-11.303c-6.242 0-11.301 5.06-11.301 11.303-.001 6.241 5.059 11.3 11.301 11.3zm-165.903 0c6.242 0 11.301-5.059 11.301-11.3s-5.059-11.303-11.301-11.303c-6.241 0-11.301 5.06-11.301 11.303 0 6.241 5.061 11.3 11.301 11.3z"/></svg>