<svg width="20" height="20" viewBox="0 0 20 20" fill="none" xmlns="http://www.w3.org/2000/svg">
<path d="M11.5 8.19995H5.50001C5.10001 8.19995 4.70001 8.59995 4.70001 8.99995C4.70001 9.39995 5.00001 9.79995 5.50001 9.79995H11.5C11.9 9.79995 12.3 9.49995 12.3 8.99995C12.3 8.49995 11.9 8.19995 11.5 8.19995Z" fill="#1E1E1E"/>
<path d="M8.00001 17.2H4.00001C3.30001 17.2 2.80001 16.6 2.80001 16V3.99995C2.80001 3.29995 3.40001 2.79995 4.00001 2.79995H13C13.7 2.79995 14.2 3.39995 14.2 3.99995V7.99995C14.2 8.39995 14.5 8.79995 15 8.79995C15.5 8.79995 15.8 8.49995 15.8 7.99995V3.99995C15.8 2.49995 14.6 1.19995 13 1.19995H4.00001C2.40001 1.19995 1.20001 2.39995 1.20001 3.99995V16C1.20001 17.5 2.40001 18.7999 4.00001 18.7999H8.00001C8.40001 18.7999 8.80001 18.5 8.80001 18C8.80001 17.5 8.40001 17.2 8.00001 17.2Z" fill="#1E1E1E"/>
<path d="M11.5 5.19995H5.50001C5.10001 5.19995 4.70001 5.59995 4.70001 5.99995C4.70001 6.39995 5.00001 6.79995 5.50001 6.79995H11.5C11.9 6.79995 12.3 6.49995 12.3 5.99995C12.3 5.49995 11.9 5.19995 11.5 5.19995Z" fill="#1E1E1E"/>
<path d="M18.6 13.3L15.8 10.5C15.7 10.4 15.5 10.3 15.3 10.3C15.1 10.3 14.9 10.4 14.8 10.5L10.6 14.7C10.5 14.8 10.4 15 10.4 15.2V18C10.4 18.4 10.7 18.8 11.2 18.8H14C14.2 18.8 14.4 18.7 14.5 18.6L18.7 14.4C18.9 14 18.9 13.6 18.6 13.3ZM13.5 17.3H11.7V15.5L15.2 12L17 13.8L13.5 17.3Z" fill="#1E1E1E"/>
<path d="M8.50001 11.2H5.50001C5.10001 11.2 4.70001 11.5 4.70001 12C4.70001 12.5 5.00001 12.8 5.50001 12.8H8.50001C8.90001 12.8 9.30001 12.5 9.30001 12C9.30001 11.5 8.90001 11.2 8.50001 11.2Z" fill="#1E1E1E"/>
</svg>
