<svg width="20" height="20" viewBox="0 0 20 20" fill="none" xmlns="http://www.w3.org/2000/svg">
<path d="M16.7 17.8H15.4C14.3 17.8 13.3 16.9 13.3 15.7V15.4H6.80001V15.7C6.80001 16.9 5.90001 17.8 4.70001 17.8H3.30001C2.20001 17.8 1.20001 16.9 1.20001 15.7V10.2C1.20001 8.90005 2.10001 7.70005 3.40001 7.50005L4.30001 3.90005C4.50001 3.00005 5.40001 2.30005 6.30001 2.30005H13.6C14.5 2.30005 15.3 2.90005 15.6 3.80005L16.8 7.60005C17.9 8.00005 18.6 9.00005 18.6 10.2V15.7C18.8 16.8 17.8 17.8 16.7 17.8ZM14.8 15.3V15.6C14.8 15.9 15.1 16.2 15.4 16.2H16.7C17 16.2 17.3 15.9 17.3 15.6V15C16.9 15.2 16.5 15.3 16.1 15.3H14.8ZM2.80001 15V15.6C2.80001 15.9 3.10001 16.2 3.40001 16.2H4.70001C5.00001 16.2 5.30001 15.9 5.30001 15.6V15.3H4.00001C3.60001 15.3 3.10001 15.2 2.80001 15ZM14 13.8H16C16.7 13.8 17.2 13.2 17.2 12.5V10.2C17.2 9.50005 16.6 8.90005 16 8.90005H4.00001C3.30001 8.90005 2.80001 9.50005 2.80001 10.2V12.5C2.80001 13.2 3.40001 13.8 4.00001 13.8H14ZM5.00001 7.40005H15.3L14.3 4.20005C14.2 4.00005 14 3.80005 13.7 3.80005H6.40001C6.10001 3.80005 5.90001 4.00005 5.80001 4.30005L5.00001 7.40005ZM15.7 11.9H13.4C13 11.9 12.6 11.6 12.6 11.1C12.6 10.6 12.9 10.3 13.4 10.3H15.7C16.1 10.3 16.5 10.6 16.5 11.1C16.5 11.6 16.1 11.9 15.7 11.9ZM6.70001 11.9H4.30001C3.90001 11.9 3.50001 11.6 3.50001 11.1C3.50001 10.6 3.80001 10.3 4.30001 10.3H6.60001C7.00001 10.3 7.40001 10.6 7.40001 11.1C7.40001 11.6 7.10001 11.9 6.70001 11.9Z" fill="#1E1E1E"/>
</svg>
