<svg xmlns="http://www.w3.org/2000/svg" xmlns:xlink="http://www.w3.org/1999/xlink"><symbol id="icon-blog" viewBox="0 0 20 20"><path d="M11.5 8.2h-6c-.4 0-.8.4-.8.8s.3.8.8.8h6c.4 0 .8-.3.8-.8s-.4-.8-.8-.8Z"/><path d="M8 17.2H4c-.7 0-1.2-.6-1.2-1.2V4c0-.7.6-1.2 1.2-1.2h9c.7 0 1.2.6 1.2 1.2v4c0 .4.3.8.8.8s.8-.3.8-.8V4c0-1.5-1.2-2.8-2.8-2.8H4C2.4 1.2 1.2 2.4 1.2 4v12c0 1.5 1.2 2.8 2.8 2.8h4c.4 0 .8-.3.8-.8s-.4-.8-.8-.8Z"/><path d="M11.5 5.2h-6c-.4 0-.8.4-.8.8s.3.8.8.8h6c.4 0 .8-.3.8-.8s-.4-.8-.8-.8ZM18.6 13.3l-2.8-2.8c-.1-.1-.3-.2-.5-.2s-.4.1-.5.2l-4.2 4.2c-.1.1-.2.3-.2.5V18c0 .4.3.8.8.8H14c.2 0 .4-.1.5-.2l4.2-4.2c.2-.4.2-.8-.1-1.1Zm-5.1 4h-1.8v-1.8l3.5-3.5 1.8 1.8-3.5 3.5ZM8.5 11.2h-3c-.4 0-.8.3-.8.8s.3.8.8.8h3c.4 0 .8-.3.8-.8s-.4-.8-.8-.8Z"/></symbol><symbol id="icon-car" viewBox="0 0 20 20"><path d="M16.7 17.8h-1.3c-1.1 0-2.1-.9-2.1-2.1v-.3H6.8v.3c0 1.2-.9 2.1-2.1 2.1H3.3c-1.1 0-2.1-.9-2.1-2.1v-5.5c0-1.3.9-2.5 2.2-2.7l.9-3.6c.2-.9 1.1-1.6 2-1.6h7.3c.9 0 1.7.6 2 1.5l1.2 3.8c1.1.4 1.8 1.4 1.8 2.6v5.5c.2 1.1-.8 2.1-1.9 2.1Zm-1.9-2.5v.3c0 .3.3.6.6.6h1.3c.3 0 .6-.3.6-.6V15c-.4.2-.8.3-1.2.3h-1.3Zm-12-.3v.6c0 .3.3.6.6.6h1.3c.3 0 .6-.3.6-.6v-.3H4c-.4 0-.9-.1-1.2-.3ZM14 13.8h2c.7 0 1.2-.6 1.2-1.3v-2.3c0-.7-.6-1.3-1.2-1.3H4c-.7 0-1.2.6-1.2 1.3v2.3c0 .7.6 1.3 1.2 1.3h10ZM5 7.4h10.3l-1-3.2c-.1-.2-.3-.4-.6-.4H6.4c-.3 0-.5.2-.6.5L5 7.4Zm10.7 4.5h-2.3c-.4 0-.8-.3-.8-.8s.3-.8.8-.8h2.3c.4 0 .8.3.8.8s-.4.8-.8.8Zm-9 0H4.3c-.4 0-.8-.3-.8-.8s.3-.8.8-.8h2.3c.4 0 .8.3.8.8s-.3.8-.7.8Z"/></symbol></svg>