<svg height="800" width="800" xmlns="http://www.w3.org/2000/svg" viewBox="0 0 512 512" xml:space="preserve"><path style="fill:#967a4a" d="M430.18 315.786c-8.056 0-14.59-6.532-14.59-14.59s6.533-14.59 14.59-14.59c24.452 0 44.345-19.895 44.345-44.347s-19.893-44.347-44.345-44.347c-40.543 0-73.527-32.984-73.527-73.527s32.983-73.527 73.527-73.527c8.057 0 14.59 6.532 14.59 14.59 0 8.057-6.532 14.59-14.59 14.59-24.454 0-44.347 19.895-44.347 44.347s19.892 44.347 44.347 44.347c40.541 0 73.526 32.984 73.526 73.526 0 40.544-32.985 73.528-73.526 73.528z"/><path style="fill:#826a40" d="M91.229 320.104c-17.66 0-31.973 14.314-31.973 31.972v66.439H29.655c-11.769 0-21.312 9.541-21.312 21.313v11.693c0 5.313 4.306 9.62 9.622 9.62h83.923c11.771 0 21.312-9.541 21.312-21.313v-87.753c-.001-17.657-14.315-31.971-31.971-31.971z"/><path style="fill:#967a4a" d="M354.795 218.255H78.74v140.537c0 52.864 42.854 95.718 95.717 95.718h180.338v-.681c65.054 0 117.788-52.735 117.788-117.787 0-65.053-52.735-117.787-117.788-117.787z"/><path style="fill:#65513c" d="M230.484 218.255v69.26c0 13.109 10.627 23.736 23.736 23.736s23.738-10.627 23.738-23.736v-69.26h-47.474zM313.063 218.255v69.26c0 13.109 10.627 23.736 23.735 23.736 13.111 0 23.738-10.627 23.738-23.736v-69.26h-47.473z"/><path style="fill:#ad8d56" d="M366.465 297.835c-45.094 0-81.654 36.558-81.654 81.653 0 14.136 3.594 27.432 9.916 39.027h-8.609c-11.77 0-21.313 9.541-21.313 21.313v11.693c0 5.313 4.306 9.62 9.622 9.62h92.039c45.095 0 81.654-36.557 81.654-81.654-.001-45.094-36.56-81.652-81.655-81.652zM198.833 320.104c-17.66 0-31.972 14.314-31.972 31.972v66.439H137.26c-11.771 0-21.313 9.541-21.313 21.313v11.693a9.62 9.62 0 0 0 9.621 9.62h83.923c11.771 0 21.312-9.541 21.312-21.313v-87.753c0-17.657-14.314-31.971-31.97-31.971z"/><path style="fill:#967a4a" d="M241.654 122.493V69.102c0-6.15-4.982-11.133-11.132-11.133a11.083 11.083 0 0 0-7.585 2.984l-42.402 42.401c-15.901-10.62-35.004-16.82-55.561-16.82s-39.661 6.201-55.562 16.821L27.01 60.953a11.092 11.092 0 0 0-7.584-2.984c-6.149 0-11.132 4.983-11.132 11.133v134.352C8.294 267.895 60.533 328 124.975 328c64.44 0 116.682-60.105 116.682-124.546v-80.96l-.003-.001z"/><path style="fill:#fff" d="M148.066 200.953H101.88c-14.041 0-25.424 11.384-25.424 25.426 0 14.042 11.383 25.425 25.424 25.425 10.258 0 19.073-6.086 23.094-14.832 4.021 8.746 12.836 14.832 23.093 14.832 14.041 0 25.426-11.383 25.426-25.425 0-14.042-11.385-25.426-25.427-25.426z"/><path style="fill:#333e48" d="M139.384 217.892c-7.303 7.572-19.467 7.788-27.032.482l-8.439-8.149c-7.567-7.306-5.153-13.284 5.366-13.284h31.185c10.517 0 13.149 6.195 5.848 13.767l-6.928 7.184z"/><path style="fill:#65513c" d="M124.974 86.534c-8.181 0-16.125 1.004-23.737 2.854v32.761c0 13.109 10.627 23.736 23.737 23.736 13.11 0 23.736-10.627 23.736-23.736V89.388a100.375 100.375 0 0 0-23.736-2.854z"/><path style="fill:#1e252b" d="M57.801 190.255c6.428 0 11.641-5.212 11.641-11.64 0-6.429-5.213-11.64-11.641-11.64s-11.641 5.211-11.641 11.64c-.001 6.428 5.212 11.64 11.641 11.64zm97.046 31.003a8.292 8.292 0 0 0 8.602 7.974l41.024-1.553a8.293 8.293 0 0 0 7.973-8.601 8.287 8.287 0 0 0-8.601-7.974l-41.024 1.553a8.29 8.29 0 0 0-7.974 8.601zm37.301-31.003c6.427 0 11.638-5.212 11.638-11.64 0-6.429-5.212-11.64-11.638-11.64-6.431 0-11.644 5.211-11.644 11.64.001 6.428 5.214 11.64 11.644 11.64zm-46.794 33.394 6.929-7.185c8.078-8.378 6.863-15.327 5.419-18.723-1.443-3.396-5.601-9.094-17.238-9.094h-31.185c-11.731 0-15.783 5.694-17.155 9.089-1.371 3.395-2.412 10.307 6.028 18.455l8.439 8.149c5.122 4.945 11.88 7.669 19.032 7.669 7.524 0 14.532-2.969 19.731-8.36zm-34.668-18.414h29.382l-6.654 6.899c-2.045 2.119-4.812 3.287-7.792 3.287-2.83 0-5.497-1.07-7.509-3.013l-7.427-7.173zm85.368 46.385-33.477-20.099a8.292 8.292 0 0 0-11.379 2.842 8.292 8.292 0 0 0 2.841 11.379l33.478 20.099a8.248 8.248 0 0 0 4.262 1.184 8.284 8.284 0 0 0 7.117-4.026 8.292 8.292 0 0 0-2.842-11.379zM86.819 229.238a8.293 8.293 0 0 0 8.282-7.98 8.291 8.291 0 0 0-7.973-8.601l-41.024-1.553c-.108-.003-.213-.006-.32-.006a8.293 8.293 0 0 0-8.282 7.98 8.291 8.291 0 0 0 7.973 8.601l41.024 1.553c.108.004.214.006.32.006zM512 242.259c0-45.116-36.704-81.82-81.82-81.82-19.88 0-36.053-16.173-36.053-36.053S410.3 88.333 430.18 88.333c12.618 0 22.884-10.266 22.884-22.884s-10.266-22.884-22.884-22.884c-45.116 0-81.821 36.705-81.821 81.821s36.705 81.821 81.821 81.821c19.878 0 36.051 16.173 36.051 36.053 0 8.21-2.74 15.955-7.687 22.23-22.773-32.917-60.783-54.528-103.75-54.528H249.78c.112-2.169.17-4.337.17-6.506v-80.96c0-.077-.001-.156-.003-.232V69.102c0-10.713-8.714-19.427-19.426-19.427a19.358 19.358 0 0 0-13.238 5.208 6.867 6.867 0 0 0-.212.206l-37.743 37.744c-16.482-9.567-35.134-14.593-54.353-14.593-19.221 0-37.873 5.026-54.354 14.593L32.875 55.089a10.3 10.3 0 0 0-.212-.206 19.357 19.357 0 0 0-13.236-5.208C8.714 49.675 0 58.391 0 69.102v134.352c0 33.239 13.249 66.785 36.349 92.037 9.139 9.989 19.346 18.27 30.302 24.706a40.178 40.178 0 0 0-15.689 31.879v58.145H29.655c-16.326 0-29.607 13.281-29.607 29.607v11.693c0 9.878 8.037 17.914 17.916 17.914h83.923c4.744 0 9.331-1.12 13.454-3.227a17.8 17.8 0 0 0 10.227 3.227h83.923a29.46 29.46 0 0 0 18.647-6.632h32.389c3.288 4.042 8.295 6.632 13.9 6.632h92.039c33.324 0 62.45-18.229 77.991-45.225l.237.232c23.334-23.725 36.184-55.12 36.184-88.402 0-9.385-1.04-18.533-2.995-27.339C499.352 293.315 512 268.907 512 242.259zM48.588 284.295c-20.337-22.231-32-51.696-32-80.84V69.102a2.841 2.841 0 0 1 2.838-2.839c.864 0 1.477.362 1.857.692l42.264 42.264a8.299 8.299 0 0 0 10.473 1.033c15.107-10.091 32.727-15.425 50.955-15.425 18.226 0 35.846 5.334 50.955 15.424a8.291 8.291 0 0 0 10.471-1.033l42.264-42.263a2.78 2.78 0 0 1 1.859-.692 2.841 2.841 0 0 1 2.838 2.839v53.391c0 .077.001.156.003.232v80.728c0 29.144-11.665 58.61-32.002 80.84-20.891 22.836-48.019 35.412-76.387 35.412-28.37.002-55.498-12.574-76.388-35.41zm59.065 155.533v11.668a12.972 12.972 0 0 1-5.766 1.351H17.964a1.329 1.329 0 0 1-1.328-1.326v-11.693c0-7.178 5.84-13.019 13.019-13.019h29.602a8.294 8.294 0 0 0 8.294-8.294v-66.439a23.67 23.67 0 0 1 2.895-11.347v18.062c0 31.118 13.517 59.908 37.239 79.743-.019.429-.032.859-.032 1.294zm6.162-18.049c-17.131-16.425-26.781-38.879-26.781-62.988v-29.072c12.165 4.323 24.927 6.576 37.941 6.576 14.202 0 28.106-2.678 41.257-7.809a40.03 40.03 0 0 0-7.664 23.589v58.145H137.26c-9.536.001-18.028 4.537-23.445 11.559zm108.694 18.049c0 7.179-5.84 13.019-13.018 13.019h-83.923a1.328 1.328 0 0 1-1.327-1.326v-11.693c0-7.178 5.84-13.019 13.019-13.019h29.601a8.294 8.294 0 0 0 8.294-8.294v-66.439c0-13.056 10.622-23.678 23.678-23.678 13.055 0 23.675 10.622 23.675 23.678v87.753h.001zm143.956 13.019h-92.039a1.329 1.329 0 0 1-1.328-1.326v-11.693c0-7.178 5.84-13.019 13.019-13.019h8.609a8.294 8.294 0 0 0 7.282-12.264c-5.826-10.684-8.904-22.806-8.904-35.057 0-40.45 32.909-73.359 73.36-73.359s73.36 32.908 73.36 73.359c.001 40.45-32.909 73.359-73.359 73.359zm89.887-75.754c-1.277-48.491-41.093-87.551-89.887-87.551-49.598 0-89.948 40.35-89.948 89.947a90.272 90.272 0 0 0 5.506 31.015c-14.395 1.999-25.512 14.388-25.512 29.324v6.387h-18.115c.454-2.058.702-4.195.702-6.387v-87.753c0-22.202-18.062-40.266-40.263-40.266-1.093 0-2.172.056-3.243.142 6.357-4.822 12.387-10.314 18.01-16.461 17.737-19.389 29.657-43.668 34.241-68.943h106.954c60.376 0 109.494 49.118 109.494 109.492-.002 14.289-2.734 28.174-7.939 41.054zm16.441-85.461a125.67 125.67 0 0 0-5.368-12.213c9.849-9.826 15.396-23.02 15.396-37.16 0-29.026-23.615-52.641-52.639-52.641-35.969 0-65.233-29.263-65.233-65.233s29.263-65.233 65.233-65.233a6.303 6.303 0 0 1 6.296 6.296 6.303 6.303 0 0 1-6.296 6.296c-29.027 0-52.641 23.615-52.641 52.641s23.615 52.641 52.641 52.641c35.968 0 65.232 29.262 65.232 65.232-.002 19.267-8.299 37.07-22.621 49.374zM87.37 231.521 53.893 251.62a8.29 8.29 0 0 0-2.841 11.379 8.288 8.288 0 0 0 11.38 2.842l33.477-20.099a8.29 8.29 0 0 0 2.841-11.379 8.295 8.295 0 0 0-11.38-2.842z"/></svg>